<?xml version="1.0" encoding="utf-8"?>
<!-- Generator: Adobe Illustrator 22.0.1, SVG Export Plug-In . SVG Version: 6.00 Build 0)  -->
<svg version="1.1" id="Ebene_1" xmlns="http://www.w3.org/2000/svg" xmlns:xlink="http://www.w3.org/1999/xlink" x="0px" y="0px"
	 viewBox="0 0 344.8 344.8" style="enable-background:new 0 0 344.8 344.8;" xml:space="preserve">
<style type="text/css">
	.st0{fill:#000;}
	.st1{fill:#fff;}
</style>
<rect x="37.9" y="37.9" transform="matrix(0.9397 -0.342 0.342 0.9397 -48.5672 69.3613)" class="st0" width="269" height="269"/>
<g>
	<path class="st1" d="M126.2,208.1c7.7,0,13.9,6.2,13.9,13.9c0,7.7-6.2,13.9-13.9,13.9c-7.7,0-14-6.2-14-13.9
		C112.2,214.4,118.5,208.1,126.2,208.1 M145.1,183.6c0,0,0-25.6,0-29.3c0-11.1-3.3-26.2-22.3-26.2c-5.3,0-10.6,3.3-10.6,3.3V90.2
		h-11.8V248h11.8v-4.3c4.1,2.7,9,4.3,14.2,4.3c14.3,0,25.9-11.6,25.9-25.9s-11.6-25.9-25.9-25.9c-5.3,0-10.2,1.5-14.2,4.2V151
		c0-5.5,4.2-10.6,10.4-10.6c5.7,0,10.3,4.6,10.3,10.6v32.6H145.1z"/>
	<rect x="159.5" y="128.4" class="st1" width="11.8" height="55.2"/>
	<rect x="212.5" y="128.4" class="st1" width="11.7" height="119.5"/>
	<path class="st1" d="M192,199v27.2c0,6.4-5.2,10.4-10.4,10.4c-5.8,0-10.2-5.2-10.2-10.5c0-0.1,0-27.1,0-27.1h-11.7l0,24.3
		c0,15.6,5.9,25.2,22.4,25.2c15.4,0,22.3-9.6,22.3-26.3l0-23.3H192z"/>
	<path class="st1" d="M87.5,156.6c-1.9-2.7-6.4-4.5-9.4-5.6c-1.7-0.6-4.3-1.6-6.6-2.4c-2.2-0.7-4.1-2.8-4.1-5.2
		c0-2.6,2.2-4.8,4.9-4.8c2.6,0,4.8,2,4.9,4.6l10.6,0c-0.1-8.2-7-14.8-15.5-14.8c-8.4,0-15.2,6.5-15.4,14.6c0.4,9,6.3,13.8,11.9,15.4
		c1.5,0.4,5.2,1.6,5.2,1.6v0c2.7,0.7,4.7,3.1,4.7,6c0,3.4-2.9,6.2-6.4,6.2c-3.5,0-6.4-2.8-6.4-6.2c0-0.1,0-0.2,0-0.4l-11.7,0
		c0,0.1,0,0.2,0,0.4c0,9.7,8.1,17.6,18.1,17.6c10,0,18.1-7.9,18.1-17.6C90.3,162.1,89.3,159.3,87.5,156.6"/>
	<polygon class="st1" points="271.9,163.7 262.9,154.9 244.9,178.5 251.7,183.1 	"/>
	<path class="st1" d="M253.8,209.2c5.3-1.3,10.6,0.6,13.9,4.5l-24.4,7.8C243.8,215.7,247.9,210.6,253.8,209.2 M282.7,217.7
		c-0.2-0.7-0.4-1.5-0.4-1.5l0,0c-3.5-13.6-17.4-22-31.1-18.6c-13.8,3.4-22.3,17.3-18.9,31.2c3.4,13.8,17.1,21.3,31.2,18.9
		c7.2-1.2,13.6-6,16.9-9.6l-10.6-6.5c-1.5,1.2-4.4,3.7-9.3,4.6c-5.7,1.1-11.4-1.1-14.6-5.4l37-12.4
		C282.9,218.2,282.9,218.2,282.7,217.7"/>
</g>
</svg>
